<?xml version="1.0" encoding="UTF-8" standalone="no"?>
<svg
   xmlns:dc="http://purl.org/dc/elements/1.1/"
   xmlns:cc="http://creativecommons.org/ns#"
   xmlns:rdf="http://www.w3.org/1999/02/22-rdf-syntax-ns#"
   xmlns:svg="http://www.w3.org/2000/svg"
   xmlns="http://www.w3.org/2000/svg"
   viewBox="0 0 220 229"
   height="229"
   width="220"
   version="1.1"
   id="svg4171">
  <metadata
     id="metadata4177">
    <rdf:RDF>
      <cc:Work
         rdf:about="">
        <dc:format>image/svg+xml</dc:format>
        <dc:type
           rdf:resource="http://purl.org/dc/dcmitype/StillImage" />
        <dc:title></dc:title>
      </cc:Work>
    </rdf:RDF>
  </metadata>
  <defs
     id="defs4175" />
  <path
     id="path4181"
     d="m 94.486572,67.915135 -1.488281,1.658203 c -7.96483,8.884463 -44.854389,52.520192 -44.601563,52.757812 0.181768,0.17083 3.679677,3.21179 7.771485,6.75782 16.538124,14.3322 28.558409,24.7439 32.974609,28.5625 2.56365,2.21674 4.856956,4.03311 5.097656,4.0371 0.24069,0.004 11.633872,-11.07785 25.318362,-24.62695 l 24.88085,-24.63477 -7.37499,-6.55859 C 133.008,102.26138 121.76886,92.246371 112.08813,83.6124 L 94.486572,67.915135 Z m 0.566406,1.488281 c 0.11238,-0.121535 13.762542,11.955361 31.685542,28.035156 2.95054,2.647098 5.80617,5.193058 6.34571,5.658208 6.17058,5.31983 9.05798,8.09138 8.88867,8.5332 -0.11466,0.29926 0.0404,0.43945 0.35547,0.31836 0.30867,-0.11861 0.5625,0.0528 0.5625,0.38086 0,0.52812 -5.63675,4.76524 -26.79492,20.14648 -3.23265,2.35001 -5.92884,4.27344 -5.99024,4.27344 -0.0614,0 -1.36421,-5.67008 -2.89648,-12.59961 -5.25638,-23.77137 -5.09814,-22.92553 -4.4043,-23.36523 0.5204,-0.32981 0.50609,-0.39635 -0.0918,-0.40235 -0.39512,-0.004 -0.8272,-0.449876 -0.95898,-0.992186 -0.13178,-0.54231 -1.04956,-4.634745 -2.039062,-9.09375 -2.70435,-12.186654 -3.101222,-13.954035 -3.951172,-17.529297 -0.42974,-1.807705 -0.750438,-3.320571 -0.710938,-3.363281 z m -0.882812,0.724609 c 0.04967,0.0088 0.09249,0.02833 0.128906,0.05859 0.32898,0.273405 0.597656,0.804755 0.597656,1.18164 0,0.376888 0.282224,1.880234 0.626954,3.341797 0.34474,1.461563 1.633944,7.194654 2.865234,12.738282 1.23129,5.543627 2.923354,13.082142 3.759764,16.753902 0.8364,3.67177 1.70551,7.61684 1.92969,8.76563 0.32397,1.66008 4.02913,18.38984 5.04883,22.79492 0.17253,0.74534 0.0403,0.97542 -0.54493,0.94532 -0.87723,-0.0452 -15.99163,-3.87607 -16.22851,-4.11328 -0.08458,-0.0847 -0.426456,-2.29064 -0.759766,-4.90235 l -0.605469,-4.74805 0.242188,4.11719 c 0.13286,2.26397 0.34341,4.38386 0.46875,4.71094 0.12533,0.32707 -2.77e-4,0.59375 -0.279297,0.59375 -0.27902,0 -4.681013,-1.07501 -9.783203,-2.38867 -5.10218,-1.31366 -14.004579,-3.58508 -19.78125,-5.04688 -13.167134,-3.33197 -12.197587,-3.01381 -11.566407,-3.77539 0.282844,-0.34128 0.377418,-0.62109 0.208985,-0.62109 -0.353204,0 0.713753,-1.28329 12.890625,-15.50782 4.93424,-5.763987 10.233472,-11.978881 11.777344,-13.810544 1.543872,-1.831662 4.497911,-5.283027 6.564453,-7.669922 2.06655,-2.386894 4.340554,-5.049042 5.052734,-5.916016 4.384772,-5.337727 6.641643,-7.634574 7.386719,-7.501953 z m -0.208984,0.566406 c -0.0942,-0.04965 -0.441964,1.156579 -0.839844,2.949219 -2.1428,9.654234 -2.579966,11.719552 -2.785156,13.146485 -0.215821,1.500707 -0.211704,1.50507 0.185546,0.21875 0.40582,-1.314014 1.750892,-7.116428 2.894532,-12.488282 0.33352,-1.566588 0.588659,-3.242465 0.568359,-3.724609 -0.0025,-0.06027 -0.01,-0.09447 -0.02344,-0.101563 z m -4.029297,18.72461 c -0.145602,0.0329 -0.528827,1.344751 -0.923829,3.201172 l -0.822265,3.857422 -3.181641,2.058593 c -7.322083,4.736392 -11.211338,7.160732 -12.224609,7.623052 -0.592127,0.27016 -1.076172,0.65704 -1.076172,0.85937 0,0.55098 0.350063,0.45376 1.658203,-0.46094 0.998664,-0.69831 10.212841,-6.586181 13.587891,-8.683591 0.56245,-0.349533 1.088822,-0.569501 1.169922,-0.488281 0.08111,0.08122 0.341838,1.82212 0.580078,3.869142 l 0.433593,3.72266 -0.15625,-4.82032 c -0.106979,-3.309166 0.04854,-5.626323 0.498047,-7.386717 0.36014,-1.410423 0.587107,-2.887874 0.503907,-3.285156 -0.01039,-0.04966 -0.02607,-0.07111 -0.04687,-0.06641 z m -0.50586,7.486328 1.314453,0.61914 c 1.47704,0.697051 3.14715,0.924179 1.96875,0.267579 -0.36105,-0.201175 -1.24667,-0.483818 -1.96875,-0.626953 l -1.314453,-0.259766 z m 3.939453,1.287109 1.53125,0.619141 c 0.84243,0.3411 1.828413,0.629625 2.189454,0.640625 1.15122,0.03509 -0.453304,-0.693121 -2.189454,-0.994141 l -1.53125,-0.265625 z m 5.251954,1.34375 c -0.87525,0.02409 -0.875251,0.02376 0,0.400391 0.481389,0.207151 1.170209,0.389141 1.531248,0.402341 0.5835,0.0214 0.5835,-0.0247 0,-0.402341 -0.361039,-0.23364 -1.049859,-0.413691 -1.531248,-0.400391 z m 5.123048,1.324222 c -0.0674,0.0237 -0.0553,0.0971 0.0488,0.21289 0.19727,0.21917 1.18324,0.62472 2.18945,0.90234 2.19688,0.60614 2.48437,0.6514 2.48437,0.38867 0,-0.11123 -0.7995,-0.41797 -1.77734,-0.68164 -0.97783,-0.26367 -2.10946,-0.59858 -2.51562,-0.74414 -0.21446,-0.0769 -0.36231,-0.10186 -0.42969,-0.0781 z m 5.65039,1.73242 c -0.79665,0.03 3.2,1.23484 17.23437,5.19336 5.29528,1.49358 10.61294,3.06491 11.81641,3.49219 1.20348,0.42729 2.37355,0.67764 2.59961,0.55664 0.59758,-0.31986 -0.21157,-0.58042 -11.79102,-3.80469 -5.77667,-1.6085 -12.4481,-3.49503 -14.82617,-4.19336 -2.37808,-0.69833 -4.64328,-1.25884 -5.0332,-1.24414 z m -20.060548,2.77344 c -0.12036,0.12051 -0.07789,2.01661 0.0957,4.21289 0.17358,2.19627 0.414806,3.89395 0.535157,3.77344 0.120349,-0.12051 0.07789,-2.01662 -0.0957,-4.2129 -0.17359,-2.19627 -0.414806,-3.89395 -0.535156,-3.77343 z m -18.154297,2.15625 c -0.411126,0.0619 -2.149647,1.02222 -3.630859,2.03125 -0.722084,0.49189 -1.099448,0.89643 -0.839844,0.89843 0.50058,0.003 4.560547,-2.57727 4.560547,-2.89843 0,-0.0303 -0.03111,-0.0401 -0.08984,-0.0312 z m -5.314453,3.50976 c -0.100339,-0.10047 -2.116734,1.01083 -4.480469,2.46875 -2.363735,1.45793 -4.11416,2.65039 -3.890625,2.65039 0.579733,0 8.590884,-4.89904 8.371094,-5.11914 z m 24.34375,3.53711 c -0.12035,0.12051 -0.07593,2.01467 0.09766,4.21094 0.17358,2.19627 0.412864,3.8959 0.533204,3.77539 0.120339,-0.12052 0.07788,-2.01662 -0.0957,-4.21289 -0.17359,-2.19627 -0.414816,-3.89395 -0.535156,-3.77344 z m -33.074219,2.02344 c -0.127235,-0.0754 -1.57527,0.67675 -3.589843,1.96289 -1.684862,1.07564 -2.842624,1.9608 -2.574219,1.9668 0.268409,0.006 0.987623,-0.38319 1.599609,-0.86524 0.61199,-0.48206 1.22165,-0.87695 1.353516,-0.87695 0.13187,0 0.964851,-0.49118 1.851562,-1.09375 1.036914,-0.70464 1.435717,-1.04852 1.359375,-1.09375 z m 81.949217,0.0664 c 0.0129,0.003 0.0176,0.0116 0.0176,0.0254 0,0.0853 -9.59065,9.71332 -21.3125,21.39453 -11.72185,11.68121 -21.15829,20.98228 -20.96875,20.66992 0.18955,-0.31236 3.147696,-5.08082 6.57227,-10.59765 l 6.22656,-10.03125 13.31836,-9.79102 c 13.96941,-10.26958 15.95317,-11.71138 16.14648,-11.66992 z m -89.054685,6.15429 c 0.239785,-0.24011 41.215257,10.12682 41.617187,10.5293 0.06672,0.0668 0.327828,2.29083 0.580078,4.94141 0.25226,2.65057 0.755481,7.8754 1.119141,11.61133 0.36366,3.73592 0.748179,7.73012 0.855469,8.875 0.10728,1.14488 0.05959,2.08007 -0.107422,2.08007 -0.31874,0 -0.482068,-0.1359 -10.517578,-8.80664 -3.46028,-2.98971 -7.29994,-6.29089 -8.533204,-7.33593 -1.233261,-1.04504 -3.619825,-3.1303 -5.304687,-4.63477 -3.685744,-3.29113 -14.844685,-12.93634 -17.771484,-15.36133 -1.153881,-0.95604 -2.0257,-1.81014 -1.9375,-1.89844 z m 42.169921,10.51563 8.244144,2.08398 c 6.11978,1.5474 8.20665,2.24132 8.10156,2.69532 -0.0778,0.33636 -3.09952,5.39531 -6.71484,11.24023 -3.615324,5.84491 -6.703392,10.62703 -6.861332,10.62695 -0.15793,-9e-5 -0.327553,-0.74076 -0.376953,-1.64453 -0.07896,-1.44517 -1.428129,-15.6697 -2.136719,-22.52539 l -0.25586,-2.47656 z"
     style="fill:#1fb1f9;stroke:none;stroke-opacity:1;fill-opacity:1" />
</svg>
